# xmcd
#
# Track frame offsets: 
#        150
#        18888
#        41030
#        84195
#        106535
#        129388
#        145681
#        175489
#        200754
#        255286
#        277455
#        298912
#        322916
#        338237
#
# Disc length: 4708 seconds
#
# Revision: 0
# Processed by: cddbd v1.5.1PL2 Copyright (c) Steve Scherf et al.
# Submitted via: ExactAudioCopy v0.95b3
#
DISCID=c812620e
DTITLE=Cuby and Blizzards - Groeten Uit Schiedam (Live In Zaal 'Arcade' 
DTITLE=1970)
DYEAR=2006
DGENRE=Blues
TTITLE0=Step In My Shoes
TTITLE1=Shake 'Em On Down
TTITLE2=Downhearted
TTITLE3=Jelly Roll
TTITLE4=Big Boss Man
TTITLE5=Got My Mojo Working
TTITLE6=Help Me
TTITLE7=Birks' Work
TTITLE8=Sweet Little Angel
TTITLE9=Night Train
TTITLE10=Parchment Farm
TTITLE11=Too Blind To See
TTITLE12=Sugar Mama
TTITLE13=Midnight Mover
EXTD=
EXTT0=
EXTT1=
EXTT2=
EXTT3=
EXTT4=
EXTT5=
EXTT6=
EXTT7=
EXTT8=
EXTT9=
EXTT10=
EXTT11=
EXTT12=
EXTT13=
PLAYORDER=
